<?xml version="1.0" encoding="UTF-8" standalone="no"?>
<svg
   version="1.0"
   width="200.000000pt"
   height="200.000000pt"
   viewBox="0 0 200.000000 200.000000"
   preserveAspectRatio="xMidYMid meet"
   id="svg5"
   sodipodi:docname="logo3_2.svg"
   inkscape:version="1.4 (86a8ad7, 2024-10-11)"
   xmlns:inkscape="http://www.inkscape.org/namespaces/inkscape"
   xmlns:sodipodi="http://sodipodi.sourceforge.net/DTD/sodipodi-0.dtd"
   xmlns="http://www.w3.org/2000/svg"
   xmlns:svg="http://www.w3.org/2000/svg">
  <defs
     id="defs5" />
  <sodipodi:namedview
     id="namedview5"
     pagecolor="#ffffff"
     bordercolor="#000000"
     borderopacity="0.25"
     inkscape:showpageshadow="2"
     inkscape:pageopacity="0.0"
     inkscape:pagecheckerboard="0"
     inkscape:deskcolor="#d1d1d1"
     inkscape:document-units="pt"
     showgrid="false"
     inkscape:zoom="1.8225"
     inkscape:cx="133.05898"
     inkscape:cy="133.33333"
     inkscape:window-width="1280"
     inkscape:window-height="730"
     inkscape:window-x="-6"
     inkscape:window-y="-6"
     inkscape:window-maximized="1"
     inkscape:current-layer="svg5" />
  <g
     transform="translate(0.000000,200.000000) scale(0.100000,-0.100000)"
     fill="#000000"
     stroke="none"
     id="g5"
     style="fill:#2b3b4b;fill-opacity:1">
    <path
       d="M890 1830 c-30 -11 -77 -35 -105 -54 -62 -41 -175 -154 -175 -175 0 -26 151 -164 215 -198 171 -90 319 -57 489 109 l89 86 -42 51 c-52 62 -148 136 -220 169 -76 35 -176 40 -251 12z m186 -115 c88 -57 82 -195 -10 -239 -70 -33 -146 -10 -186 56 -73 120 78 261 196 183z"
       id="path1"
       style="fill:#2b3b4b;fill-opacity:1" />
    <path
       d="M956 1644 c-30 -29 -18 -90 20 -105 71 -26 123 72 60 113 -19 13 -64 9 -80 -8z"
       id="path2"
       style="fill:#2b3b4b;fill-opacity:1" />
    <path
       d="M924 1145 l-79 -150 0 -186 -1 -185 -47 -81 -47 -80 0 -146 0 -147 74 0 75 0 3 151 3 151 33 29 c35 31 66 36 107 17 46 -21 55 -53 55 -208 l0 -140 75 0 75 0 0 152 0 151 -45 73 -45 72 -1 183 0 184 -78 155 -78 154 -79 -149z m104 -237 c7 -7 12 -41 12 -80 0 -75 -8 -86 -55 -74 -24 6 -25 10 -25 74 0 69 10 92 40 92 9 0 21 -5 28 -12z"
       id="path3"
       style="fill:#2b3b4b;fill-opacity:1" />
    <path
       d="M419 845 l-54 -110 5 -257 5 -257 34 -26 c33 -24 42 -25 163 -25 l128 0 0 157 0 156 46 74 c67 108 57 114 -62 33 -119 -81 -117 -82 -108 60 l6 87 -55 109 -55 109 -53 -110z"
       id="path4"
       style="fill:#2b3b4b;fill-opacity:1" />
    <path
       d="M1475 844 l-50 -106 4 -109 c1 -60 0 -109 -4 -109 -3 0 -52 32 -108 71 -120 83 -135 76 -63 -32 l46 -69 0 -160 0 -160 128 0 c127 0 128 0 170 31 l42 31 0 246 0 247 -52 112 c-29 62 -55 112 -58 112 -3 0 -27 -47 -55 -105z"
       id="path5"
       style="fill:#2b3b4b;fill-opacity:1" />
  </g>
</svg>
